PathFileType	4	(X/Y/Z)	6_2_103_p1_0-328_filt_butterworth.trc
DataRate	CameraRate	NumFrames	NumMarkers	Units	OrigDataRate	OrigDataStartFrame	OrigNumFrames
59.0	59.0	5	27	m	59.0	287	328
Frame#	Time	RHip			RKnee			RAnkle			RBigToe			RSmallToe			RHeel			LHip			LKnee			LAnkle			LBigToe			LSmallToe			LHeel			Neck			Head			Nose			RShoulder			RElbow			RWrist			RThumb			RIndex			RPinky			LShoulder			LElbow			LWrist			LThumb			LIndex			LPinky			
		X1	Y1	Z1	X2	Y2	Z2	X3	Y3	Z3	X4	Y4	Z4	X5	Y5	Z5	X6	Y6	Z6	X7	Y7	Z7	X8	Y8	Z8	X9	Y9	Z9	X10	Y10	Z10	X11	Y11	Z11	X12	Y12	Z12	X13	Y13	Z13	X14	Y14	Z14	X15	Y15	Z15	X16	Y16	Z16	X17	Y17	Z17	X18	Y18	Z18	X19	Y19	Z19	X20	Y20	Z20	X21	Y21	Z21	X22	Y22	Z22	X23	Y23	Z23	X24	Y24	Z24	X25	Y25	Z25	X26	Y26	Z26	X27	Y27	Z27	
287	4.864406779661017	0.27168968032600593	0.4500170499543169	0.7305188636897396	0.29921517491608735	0.47342196474100046	1.115997928430245	0.28640360043991747	0.5732576592755603	1.4933181284976835	0.2724063887014516	0.3540600177130481	1.498259526552376	0.3381295095632791	0.44748105627824236	1.5460415325123098	0.267070717752721	0.6130703848116317	1.5497455736001775	0.07741818262415642	0.4892552535469885	0.7602622517118359	0.07854394449410042	0.4535995191366204	1.1243237757908287	0.11872031888749106	0.5430351613087548	1.5175735177700593	0.11658191500904998	0.41639131212741565	1.564625288207102	0.06528470147613177	0.40697606302242434	1.5251261767511506	0.1343881104843268	0.6040926722598138	1.582058023084835	0.12857853744377773	0.43430053152549136	0.1896012902296812	0.15012798118645937	0.40273055205041663	-0.043006899955146505	0.14956828611684853	0.3431714670112254	0.05670018647052917	0.2851969608493216	0.4218786195029073	0.25875354382069865	0.3089417904371325	0.3923834489498733	0.5146298643328644	0.20416016865735828	0.3608513316597741	0.7065229675881272	0.1181204854863816	0.34607451089916136	0.7551642560226339	0.12074817453649682	0.37678333946552495	0.7878661972229427	0.16732907464277277	0.42807923752853816	0.8352131515975856	-0.01256281270576963	0.45050792770496056	0.2758161413064012	-0.0009401004229739227	0.44075905421016753	0.513885742221274	0.0984612030565285	0.33520537179089827	0.6628810826791671	0.12805783658542189	0.3321768587075865	0.7244015530366175	0.1366641297441298	0.32717424401372935	0.7565854389210701	0.1404268876636226	0.3708965894433204	0.772695463467704
288	4.88135593220339	0.27167779906253936	0.44995848522154375	0.7304166046984302	0.29910917673653037	0.47304129025475616	1.1155472534531916	0.2873472480080635	0.5742520107958138	1.4925501153645475	0.2724141182607418	0.3540856204199017	1.4982557227503444	0.338116906221643	0.4474456843404784	1.5459993345038396	0.26654820505461896	0.6127070512038598	1.5475825026715635	0.07778578881714109	0.48205281849234094	0.7578478518507711	0.07972296221004299	0.45457037479630685	1.1240629390542929	0.11871357013855652	0.5431110569853711	1.5175974891928112	0.11688577739041231	0.4163182926791455	1.5631601752596946	0.06532122677859578	0.40698559811140345	1.5253002431994203	0.1357807475386717	0.6043723274241481	1.5837445096371388	0.1260193168827064	0.434857890680476	0.19009841751026088	0.14904950686818993	0.40310639854031766	-0.04391055808376748	0.14906376152116294	0.3431052052183006	0.05669798499235022	0.28270681465512154	0.4248437320375298	0.25839322036830137	0.3087121189578051	0.392054566776119	0.5142083299831124	0.20439977386815508	0.360695319635384	0.707796360436277	0.11930868573491017	0.3427612353727819	0.7528873382493467	0.12067861386110287	0.37987305824546896	0.7892583880612154	0.16882032125180862	0.42708273623635606	0.8353256648602558	-0.012551163454802708	0.45021001038516656	0.277396154309498	-0.0008315206942756887	0.4392489177104687	0.5140420268611279	0.09844412989035185	0.3353681899402404	0.6629050462446239	0.12991836196852966	0.32800571071020646	0.7249997251252043	0.13699918528815314	0.3253281055231147	0.7558497155834067	0.14224289551595132	0.3712207737240856	0.7724619229067897
289	4.898305084745763	0.2716898257635447	0.4499093602231566	0.7304535023842393	0.2991125297075933	0.4727260867776456	1.1155308213778021	0.28771321614445516	0.5746164313901115	1.4922398875504341	0.2723184170134982	0.3544025982899666	1.4984489485231696	0.3381061960647624	0.447372012662944	1.5459612783745658	0.26617874014123116	0.6121607142600347	1.5459433744554938	0.07802865490009907	0.47896278087530136	0.7568385080684717	0.08070975485996022	0.4556952644981072	1.1236930964032041	0.11886364091453669	0.5427478315791203	1.5185015541282025	0.11713546220975575	0.41620486765708103	1.5619912516328982	0.06535895299325739	0.4070133996097582	1.5253815253742733	0.13639595759707568	0.6042939420687112	1.5848797772021763	0.12402342347198146	0.4353623966574923	0.190455455280964	0.14688439592615357	0.4032150207367974	-0.04410924493848493	0.14779191695675342	0.34279436554431997	0.056646890443879765	0.28118841588577903	0.4258644075285059	0.25791574395981953	0.30871428254571653	0.3917452653753883	0.5139628309509053	0.2050086011219216	0.35909393369515663	0.7082343815565854	0.11973686454885266	0.34151271231842645	0.7516874716284506	0.12142979811291105	0.3811141675028294	0.7917676391404282	0.17117882763795328	0.4237970899598477	0.8353117148484005	-0.012643430758914925	0.45012071640277596	0.27882225300139557	-0.0004657747726943591	0.43519117295908727	0.5141038487293735	0.09848691624823766	0.335390287560639	0.6629289292782369	0.13078263729705253	0.32478537850765177	0.7252082625371731	0.13814676975220538	0.3240797809008782	0.7551586522763243	0.14462925440992253	0.3688614923990588	0.7709863117976941
290	4.915254237288136	0.2717556095699102	0.44978874538246677	0.7308888184174068	0.29914400164126986	0.4725957449634393	1.115575930323483	0.2877113868142611	0.5746089060626519	1.492255195651293	0.2722572837228636	0.3545456571309496	1.498535784037121	0.33809888227161466	0.447317898070911	1.5459321637414094	0.2661416376036396	0.6117525470723837	1.5452346777762944	0.07808877392251815	0.4787970087922227	0.7567181873972134	0.08122416177316198	0.4563260834124507	1.1239193613301852	0.11901773322637474	0.5423389623027717	1.5191984954177695	0.11724578693619486	0.41612024244061874	1.5615107033086744	0.0653766214391875	0.40704643453240635	1.525393285088202	0.1364487452840113	0.6041401177355713	1.5852778634043179	0.12323087348940091	0.43562283341056196	0.19059838925885828	0.14387105278394854	0.40337385949864907	-0.04372094624948689	0.14574041273368052	0.3424237391650759	0.05657770086531655	0.28071175642474966	0.4259174619944401	0.25703203007129355	0.3086629497363276	0.3914681523457834	0.5138722628036176	0.20622227833648848	0.3555886718805831	0.7073747075478038	0.11964166006877763	0.34163680270662233	0.7518522104545206	0.12249778078741208	0.38115197332762374	0.793997223867738	0.17384554984895662	0.4190706715821012	0.8350514171277513	-0.012770735246302864	0.45014708887821453	0.2795456404993344	6.833781851184903e-06	0.4296700030427932	0.5140792744977117	0.09861294297681902	0.33516882970481365	0.6629462895462094	0.13113557373490672	0.32325989676971234	0.7246381636695796	0.14011197687838461	0.32113800519523067	0.7545870478620428	0.1463427713207189	0.36310173806925927	0.7675991867752792
291	4.932203389830509	0.27188405099954843	0.4495285009526163	0.7318171859774727	0.29916873432816654	0.4726145786291987	1.115562675390254	0.2876264733855278	0.5745346873233357	1.4923614664048854	0.27223776467215194	0.35452051013754965	1.4985158970162005	0.3380862018373293	0.44730696696568967	1.5459052869206702	0.2663840816380108	0.6118057360348259	1.545260427528389	0.0780773601901223	0.47935751170089674	0.7569366194957774	0.08136002028666676	0.4562090496952104	1.125296445328182	0.1190937832970776	0.5421268264222155	1.5189354446779006	0.11725522758997739	0.4160994649272672	1.5614948857792779	0.06537793728040542	0.407058500850758	1.5253840137148456	0.13632946819164493	0.6040758863616571	1.5852634402677246	0.12334493605821518	0.4356580528912315	0.19061343748690543	0.14110786531865172	0.40331585336053427	-0.04291111118514727	0.14336989434266426	0.3422861072121974	0.056610176323499725	0.28063779522072735	0.425836080617226	0.2559047133083772	0.3087198920407032	0.39158712109276683	0.513937943040365	0.20774881270379236	0.3511737566837708	0.7058031931357786	0.11943138092351821	0.34206104203349524	0.7525190944649345	0.12326999122436075	0.3808409479355201	0.7951731579819816	0.17609712671839264	0.4152287234549075	0.835080572371609	-0.012872183048107319	0.4502018507542902	0.27980050223387637	0.00032198276191767653	0.42527864554954975	0.5138036775521871	0.0987553981754124	0.33484891200875916	0.6629663966269881	0.13182510066729303	0.32291170288361143	0.7233349761384072	0.1424541969621537	0.31690786833531975	0.7543537775630076	0.14713640640464415	0.35621447040289783	0.7634691688776527
